<svg width="100" height="100" viewBox="0 0 100 100" fill="none" xmlns="http://www.w3.org/2000/svg">
<path fill-rule="evenodd" clip-rule="evenodd" d="M13.6296 0.321289L50.0007 15.3311L86.3617 0.352695L86.3704 46.7487L71.4396 40.6652V22.6464L49.9847 31.4724L28.5611 22.6473V34.0901L86.3703 57.9086L86.3618 84.6967L49.9926 99.6785L13.6388 84.6966L13.63 55.157L28.561 61.2406V74.6961L50.0004 83.5277L71.4396 74.6961V67.901L13.6547 44.0971L13.6296 0.321289Z" fill="black"/>
<path fill-rule="evenodd" clip-rule="evenodd" d="M13.6296 0.321289L50.0007 15.3311L86.3617 0.352695L86.3704 46.7487L71.4396 40.6652V22.6464L49.9847 31.4724L28.5611 22.6473V34.0901L86.3703 57.9086L86.3618 84.6967L49.9926 99.6785L13.6388 84.6966L13.63 55.157L28.561 61.2406V74.6961L50.0004 83.5277L71.4396 74.6961V67.901L13.6547 44.0971L13.6296 0.321289Z" fill="black" fill-opacity="0.2"/>
</svg>
