<svg width="100" height="101" fill="none" xmlns="http://www.w3.org/2000/svg">
  <path fill-rule="evenodd" clip-rule="evenodd" d="M50 .324c-41.175 0-50 8.825-50 50s8.825 50 50 50 50-8.825 50-50-8.825-50-50-50zM46.784 57.18a1.528 1.528 0 001.528 0l8.94-5.16a1.07 1.07 0 011.604.925v18.059c0 .548.294 1.055.77 1.327l16.198 9.255a1.528 1.528 0 002.286-1.326V20.39a1.528 1.528 0 00-2.292-1.324l-27.506 15.88a1.528 1.528 0 01-1.528 0L22.182 20.744a1.528 1.528 0 00-2.292 1.323V40.77c0 .545.291 1.05.764 1.323l26.13 15.086z" fill="#000"/>
</svg>
