<?xml version="1.0" standalone="no"?>
<!DOCTYPE svg PUBLIC "-//W3C//DTD SVG 20010904//EN"
 "http://www.w3.org/TR/2001/REC-SVG-20010904/DTD/svg10.dtd">
<svg version="1.0" xmlns="http://www.w3.org/2000/svg"
 width="700.000000pt" height="700.000000pt" viewBox="0 0 700.000000 700.000000"
 preserveAspectRatio="xMidYMid meet">
<metadata>
Created by potrace 1.14, written by Peter Selinger 2001-2017
</metadata>
<g transform="translate(0.000000,700.000000) scale(0.100000,-0.100000)"
fill="#000000" stroke="none">
<path d="M3008 6995 c-2 -2 -73 -6 -158 -9 -147 -6 -182 -8 -360 -21 -658 -50
-1158 -180 -1510 -393 -447 -270 -717 -707 -854 -1382 -8 -41 -17 -93 -21
-115 -3 -23 -8 -52 -10 -65 -3 -14 -10 -59 -16 -100 -5 -41 -12 -86 -14 -100
-3 -13 -7 -58 -11 -99 -3 -41 -7 -83 -9 -93 -2 -11 -7 -61 -10 -111 -3 -51 -8
-113 -10 -139 -26 -280 -26 -1495 0 -1733 2 -22 7 -83 10 -136 3 -53 7 -104 9
-115 2 -10 7 -55 11 -99 3 -44 8 -89 10 -100 2 -11 7 -40 10 -65 3 -25 14 -99
26 -165 11 -66 22 -129 24 -140 11 -75 84 -341 122 -445 109 -302 233 -507
419 -694 217 -219 485 -369 849 -476 119 -34 319 -81 405 -94 19 -3 46 -8 60
-10 34 -6 119 -18 150 -22 14 -2 39 -5 55 -8 17 -3 64 -8 105 -12 41 -3 84 -8
95 -10 11 -2 63 -7 115 -10 52 -3 113 -7 135 -9 410 -27 1411 -27 1740 0 28 2
82 6 120 9 82 6 187 15 232 22 18 2 57 6 85 10 170 18 507 83 633 121 526 158
844 371 1086 729 192 285 334 719 395 1209 2 22 7 51 9 65 2 14 7 57 10 95 4
39 9 84 11 100 2 17 6 66 9 110 4 44 8 103 10 130 27 343 27 1403 0 1755 -2
30 -7 91 -10 135 -4 44 -8 93 -10 110 -2 16 -6 57 -9 90 -4 33 -8 76 -11 95
-12 90 -15 117 -20 140 -3 14 -7 42 -10 64 -2 21 -7 46 -9 55 -3 9 -7 34 -11
56 -21 141 -104 441 -164 595 -53 133 -165 341 -228 420 -240 306 -460 463
-859 613 -110 42 -394 115 -526 137 -35 5 -74 12 -88 15 -67 13 -286 41 -400
50 -41 4 -86 8 -100 10 -14 2 -81 7 -150 11 -69 3 -152 8 -185 11 -70 4 -1172
12 -1177 8z m2427 -1328 l34 -34 0 -2123 c0 -2294 3 -2157 -51 -2194 -49 -34
-76 -24 -376 148 -158 90 -303 173 -322 183 -19 11 -59 34 -88 52 -29 17 -55
31 -58 31 -3 0 -18 8 -32 18 -15 11 -52 32 -82 49 -30 17 -79 44 -108 62 -29
17 -55 31 -57 31 -20 0 -154 95 -163 115 -9 19 -12 201 -12 681 l0 655 -25 24
c-43 44 -27 52 -470 -205 -238 -138 -266 -152 -299 -152 -22 0 -114 49 -311
162 -338 196 -812 469 -840 484 -11 6 -27 16 -35 22 -8 7 -37 24 -65 38 -27
15 -57 31 -65 37 -8 5 -143 83 -300 173 -190 110 -291 174 -302 191 -14 25
-16 92 -17 694 0 395 4 680 10 701 12 44 48 71 97 72 28 0 65 -16 157 -69 66
-39 224 -130 350 -203 443 -256 551 -318 585 -339 19 -11 42 -24 50 -28 8 -4
62 -35 120 -69 228 -134 422 -244 430 -244 5 0 10 -4 12 -8 7 -19 110 -60 139
-57 17 2 90 39 162 81 73 42 147 85 165 95 67 39 100 58 185 108 49 28 93 51
98 51 5 0 9 5 9 10 0 6 4 10 9 10 8 0 86 44 418 236 52 30 392 227 436 252 23
13 100 58 172 100 71 41 175 101 230 133 123 71 160 76 210 26z"/>
</g>
</svg>
